# Blender 4.5.2 LTS
# www.blender.org
mtllib boba_ice_cup.mtl
o Container
v 0.000000 0.000000 -0.900000
v 0.000000 2.350000 -1.000000
v 0.450000 0.000000 -0.779423
v 0.500000 2.350000 -0.866025
v 0.779423 0.000000 -0.450000
v 0.866025 2.350000 -0.500000
v 0.900000 0.000000 0.000000
v 1.000000 2.350000 0.000000
v 0.779423 0.000000 0.450000
v 0.866025 2.350000 0.500000
v 0.450000 0.000000 0.779423
v 0.500000 2.350000 0.866025
v 0.000000 0.000000 0.900000
v 0.000000 2.350000 1.000000
v -0.450000 0.000000 0.779423
v -0.500000 2.350000 0.866025
v -0.779423 0.000000 0.450000
v -0.866025 2.350000 0.500000
v -0.900000 0.000000 0.000000
v -1.000000 2.350000 0.000000
v -0.779423 0.000000 -0.450000
v -0.866025 2.350000 -0.500000
v -0.450000 0.000000 -0.779423
v -0.500000 2.350000 -0.866025
v 0.485342 2.350000 -0.840637
v 0.000000 2.350000 -0.970684
v 0.840637 2.350000 -0.485342
v 0.970684 2.350000 0.000000
v 0.840637 2.350000 0.485342
v 0.485342 2.350000 0.840637
v 0.000000 2.350000 0.970684
v -0.485342 2.350000 0.840637
v -0.840637 2.350000 0.485342
v -0.970684 2.350000 0.000000
v -0.840637 2.350000 -0.485342
v -0.485342 2.350000 -0.840637
v 0.485342 1.988892 -0.840637
v 0.000000 1.979612 -0.970684
v 0.840637 2.099502 -0.485342
v 0.970684 2.164854 0.000000
v 0.840637 2.099502 0.485342
v 0.485342 2.099502 0.840637
v 0.000000 2.099502 0.970684
v -0.485342 2.027542 0.840637
v -0.840637 2.099502 0.485342
v -0.970684 2.040030 0.000000
v -0.840637 2.040592 -0.485342
v -0.485342 2.099502 -0.840637
v -0.422363 2.070453 0.409972
v 0.448912 2.107955 0.448912
v -0.439816 2.090151 -0.436400
v 0.495408 2.165215 -0.406611
v -0.491433 2.200134 0.021099
v -0.023419 2.283499 0.510226
v 0.448912 2.188047 0.000000
v 0.002745 2.105367 -0.400871
v -0.009001 2.179493 0.123221
vn -0.0000 -0.0425 -0.9991
vn 0.4995 -0.0425 -0.8652
vn 0.8652 -0.0425 -0.4995
vn 0.9991 -0.0425 -0.0000
vn 0.8652 -0.0425 0.4995
vn 0.4995 -0.0425 0.8652
vn -0.0000 -0.0425 0.9991
vn -0.4995 -0.0425 0.8652
vn -0.8652 -0.0425 0.4995
vn -0.9991 -0.0425 -0.0000
vn -0.8652 -0.0425 -0.4995
vn -0.0000 1.0000 -0.0000
vn -0.4995 -0.0425 -0.8652
vn -0.0000 -1.0000 -0.0000
vn -0.0000 -0.0000 -1.0000
vn -0.5000 -0.0000 -0.8660
vn 0.0116 -0.0000 -0.9999
vn -0.0214 0.9981 -0.0581
vn 0.0378 0.9990 -0.0246
vn 0.0198 0.9773 -0.2108
vn 0.0023 0.9842 -0.1772
vn -1.0000 -0.0000 -0.0000
vn -0.8660 -0.0000 0.5000
vn -0.8513 -0.0000 0.5246
vn 0.8660 -0.0000 0.5000
vn 1.0000 -0.0000 -0.0000
vn 0.9999 -0.0000 0.0103
vn 0.8712 -0.0000 0.4909
vn 0.5000 -0.0000 -0.8660
vn -0.8660 -0.0000 -0.5000
vn -0.8602 -0.0000 -0.5099
vn 0.5000 -0.0000 0.8660
vn 0.4922 -0.0000 0.8705
vn -0.5000 -0.0000 0.8660
vn -0.0000 -0.0000 1.0000
vn -0.0200 -0.0000 0.9998
vn -0.4814 -0.0000 0.8765
vn 0.8660 -0.0000 -0.5000
vn 0.8651 -0.0000 -0.5017
vn -0.1302 0.9902 -0.0501
vn -0.0471 0.9925 -0.1130
vn -0.1714 0.9778 0.1207
vn -0.0551 0.9908 0.1239
vn 0.1112 0.9897 0.0905
vn -0.1808 0.9831 -0.0281
vn -0.1872 0.9783 -0.0883
vn 0.0212 0.9974 -0.0683
vn 0.0333 0.9777 -0.2075
vn 0.0037 0.9494 -0.3140
vn 0.0918 0.9716 -0.2180
vn 0.0604 0.9978 0.0258
vn 0.0252 0.9934 0.1115
vn 0.1509 0.9784 0.1411
vn -0.0663 0.9738 0.2174
vn -0.1986 0.9627 0.1836
vn -0.0541 0.9923 0.1114
vt 0.268539 0.003296
vt 0.270819 0.969203
vt 0.182383 0.969203
vt 0.180604 0.003296
vt 0.090869 0.969203
vt 0.091811 0.003296
vt -0.003665 0.969203
vt 0.001843 0.003296
vt 1.001724 0.003296
vt 1.000021 0.969203
vt 0.922917 0.969203
vt 0.925530 0.003296
vt 0.845046 0.969203
vt 0.848567 0.003296
vt 0.766778 0.969203
vt 0.769785 0.003296
vt 0.687370 0.969203
vt 0.689976 0.003296
vt 0.606516 0.969203
vt 0.608794 0.003296
vt 0.524859 0.969203
vt 0.525510 0.003296
vt 0.441469 0.969203
vt 0.441351 0.003296
vt 0.924427 0.982693
vt 0.847021 0.982693
vt 0.356650 0.969203
vt 0.355888 0.003296
vt 0.887524 0.975129
vt 0.768659 0.982693
vt 0.847466 0.992195
vt 0.769570 0.992195
vt 0.998005 0.982693
vt 0.357449 0.982693
vt 0.271289 0.982693
vt 0.182816 0.982693
vt 0.092181 0.982693
vt 0.003365 0.982693
vt 0.442399 0.982693
vt 0.526068 0.982693
vt 0.608098 0.982693
vt 0.689060 0.982693
vt 0.500000 0.500000
vt 1.000000 0.500000
vt 1.000000 1.000000
vt 0.500000 1.000000
vt 0.094461 0.992195
vt 0.006655 0.992195
vt 0.526538 0.992195
vt 0.442586 0.992195
vt 0.689941 0.992195
vt 0.996620 0.992195
vt 0.922735 0.992195
vt 0.357698 0.992195
vt 0.271289 0.992195
vt 0.183255 0.992195
vt 0.609042 0.992195
vt 0.000000 0.500000
vt 0.000000 1.000000
vt 0.000000 0.000000
vt 0.500000 0.000000
vt 1.000000 0.000000
vt 0.250000 1.000000
vt 0.166667 1.000000
vt 0.083333 1.000000
vt 0.000000 1.000000
vt 0.916667 1.000000
vt 0.833333 1.000000
vt 0.750000 1.000000
vt 0.666667 1.000000
vt 0.583333 1.000000
vt 0.500000 1.000000
vt 0.416667 1.000000
vt 0.333333 1.000000
s 1
usemtl Container
f 1/1/1 2/2/1 4/3/2 3/4/2
f 3/4/2 4/3/2 6/5/3 5/6/3
f 5/6/3 6/5/3 8/7/4 7/8/4
f 7/9/4 8/10/4 10/11/5 9/12/5
f 9/12/5 10/11/5 12/13/6 11/14/6
f 11/14/6 12/13/6 14/15/7 13/16/7
f 13/16/7 14/15/7 16/17/8 15/18/8
f 15/18/8 16/17/8 18/19/9 17/20/9
f 17/20/9 18/19/9 20/21/10 19/22/10
f 19/22/10 20/21/10 22/23/11 21/24/11
f 12/13/12 10/11/12 29/25/12 30/26/12
f 21/24/11 22/23/11 24/27/13 23/28/13
f 23/28/13 24/27/13 2/2/1 1/1/1
f 1/29/14 3/29/14 5/29/14 7/29/14 9/29/14 11/29/14 13/29/14 15/29/14 17/29/14 19/29/14 21/29/14 23/29/14
f 31/30/15 30/26/16 42/31/16 43/32/17
f 10/11/12 8/10/12 28/33/12 29/25/12
f 2/2/12 24/27/12 36/34/12 26/35/12
f 4/3/12 2/2/12 26/35/12 25/36/12
f 8/7/12 6/5/12 27/37/12 28/38/12
f 24/27/12 22/23/12 35/39/12 36/34/12
f 6/5/12 4/3/12 25/36/12 27/37/12
f 22/23/12 20/21/12 34/40/12 35/39/12
f 20/21/12 18/19/12 33/41/12 34/40/12
f 18/19/12 16/17/12 32/42/12 33/41/12
f 16/17/12 14/15/12 31/30/12 32/42/12
f 14/15/12 12/13/12 30/26/12 31/30/12
f 28/38/22 27/37/23 39/47/24 40/48/22
f 35/39/25 34/40/26 46/49/27 47/50/28
f 32/42/29 31/30/15 43/32/17 44/51/29
f 29/25/30 28/33/22 40/52/22 41/53/31
f 36/34/32 35/39/25 47/50/28 48/54/33
f 25/36/34 26/35/35 38/55/36 37/56/37
f 33/41/38 32/42/29 44/51/29 45/57/39
f 30/26/16 29/25/30 41/53/31 42/31/16
f 26/35/35 36/34/32 48/54/33 38/55/36
f 27/37/23 25/36/34 37/56/37 39/47/24
f 34/40/26 33/41/38 45/57/39 46/49/27
usemtl Caramel_Ice
f 57/43/18 55/44/19 52/45/20 56/46/21
f 53/58/40 57/43/18 56/46/21 51/59/41
f 49/60/42 54/61/43 57/43/18 53/58/40
f 54/61/43 50/62/44 55/44/19 57/43/18
f 46/63/45 53/58/40 51/59/41 47/64/46
f 47/64/46 51/59/41 48/65/47
f 48/65/47 51/59/41 56/46/21 38/66/48
f 38/66/48 56/46/21 52/45/20 37/67/49
f 37/67/49 52/45/20 39/68/50
f 39/68/50 52/45/20 55/44/19 40/69/51
f 40/69/51 55/44/19 50/62/44 41/70/52
f 41/70/52 50/62/44 42/71/53
f 42/71/53 50/62/44 54/61/43 43/72/54
f 43/72/54 54/61/43 49/60/42 44/73/55
f 44/73/55 49/60/42 45/74/56
f 45/74/56 49/60/42 53/58/40 46/63/45
o Boba0
v 0.129942 1.994034 -0.204010
v 0.260693 2.007202 -0.323039
v 0.258203 2.114431 -0.181856
v 0.089435 2.157583 -0.148797
v -0.012376 2.077021 -0.269552
v 0.093468 1.984082 -0.377237
v 0.300996 2.178890 -0.341390
v 0.195152 2.271829 -0.233704
v 0.027927 2.248709 -0.287903
v 0.030418 2.141480 -0.429086
v 0.199185 2.098328 -0.462144
v 0.158678 2.261877 -0.406931
vn -0.0852 -0.7942 0.6017
vn 0.6902 -0.7161 -0.1042
vn 0.6754 -0.0802 0.7331
vn -0.3254 0.1757 0.9291
vn -0.9292 -0.3021 0.2130
vn -0.3015 -0.8532 -0.4256
vn 0.9292 0.3021 -0.2130
vn 0.3015 0.8532 0.4256
vn -0.6902 0.7161 0.1042
vn -0.6754 0.0802 -0.7331
vn 0.3254 -0.1757 -0.9291
vn 0.0852 0.7942 -0.6017
vt 0.181819 0.000000
vt 0.272728 0.157461
vt 0.090910 0.157461
vt 0.363637 0.000000
vt 0.454546 0.157461
vt 0.909091 0.000000
vt 1.000000 0.157461
vt 0.818182 0.157461
vt 0.727273 0.000000
vt 0.636364 0.157461
vt 0.545455 0.000000
vt 0.363637 0.314921
vt 0.181819 0.314921
vt 0.909091 0.314921
vt 0.727273 0.314921
vt 0.545455 0.314921
vt 0.000000 0.314921
vt 0.272728 0.472382
vt 0.090910 0.472382
vt 0.818182 0.472382
vt 0.636364 0.472382
vt 0.454546 0.472382
s 1
usemtl Boba
f 58/75/57 59/76/58 60/77/59
f 59/76/58 58/78/57 63/79/62
f 58/80/57 60/81/59 61/82/60
f 58/83/57 61/82/60 62/84/61
f 58/85/57 62/84/61 63/79/62
f 59/76/58 63/79/62 68/86/67
f 60/77/59 59/76/58 64/87/63
f 61/82/60 60/81/59 65/88/64
f 62/84/61 61/82/60 66/89/65
f 63/79/62 62/84/61 67/90/66
f 59/76/58 68/86/67 64/87/63
f 60/77/59 64/87/63 65/91/64
f 61/82/60 65/88/64 66/89/65
f 62/84/61 66/89/65 67/90/66
f 63/79/62 67/90/66 68/86/67
f 64/87/63 68/86/67 69/92/68
f 65/91/64 64/87/63 69/93/68
f 66/89/65 65/88/64 69/94/68
f 67/90/66 66/89/65 69/95/68
f 68/86/67 67/90/66 69/96/68
o Boba1
v -0.099566 2.118416 0.572119
v -0.124246 1.987169 0.455492
v -0.014421 2.120825 0.416616
v -0.084662 2.270114 0.481548
v -0.237900 2.228720 0.560554
v -0.262363 2.053852 0.544450
v -0.124595 2.057751 0.292839
v -0.100132 2.232620 0.308943
v -0.238248 2.299302 0.397902
v -0.348074 2.165647 0.436778
v -0.277833 2.016357 0.371845
v -0.262929 2.168055 0.281274
vn 0.4844 -0.1472 0.8624
vn 0.3380 -0.9255 0.1708
vn 0.9893 -0.1329 -0.0598
vn 0.5728 0.7524 0.3253
vn -0.3360 0.5069 0.7938
vn -0.4810 -0.5301 0.6983
vn 0.3360 -0.5069 -0.7938
vn 0.4810 0.5301 -0.6983
vn -0.3380 0.9255 -0.1708
vn -0.9893 0.1329 0.0598
vn -0.5728 -0.7524 -0.3253
vn -0.4844 0.1472 -0.8624
vt 0.181819 0.000000
vt 0.272728 0.157461
vt 0.090910 0.157461
vt 0.363637 0.000000
vt 0.454546 0.157461
vt 0.909091 0.000000
vt 1.000000 0.157461
vt 0.818182 0.157461
vt 0.727273 0.000000
vt 0.636364 0.157461
vt 0.545455 0.000000
vt 0.363637 0.314921
vt 0.181819 0.314921
vt 0.909091 0.314921
vt 0.727273 0.314921
vt 0.545455 0.314921
vt 0.000000 0.314921
vt 0.272728 0.472382
vt 0.090910 0.472382
vt 0.818182 0.472382
vt 0.636364 0.472382
vt 0.454546 0.472382
s 1
usemtl Boba.001
f 70/97/69 71/98/70 72/99/71
f 71/98/70 70/100/69 75/101/74
f 70/102/69 72/103/71 73/104/72
f 70/105/69 73/104/72 74/106/73
f 70/107/69 74/106/73 75/101/74
f 71/98/70 75/101/74 80/108/79
f 72/99/71 71/98/70 76/109/75
f 73/104/72 72/103/71 77/110/76
f 74/106/73 73/104/72 78/111/77
f 75/101/74 74/106/73 79/112/78
f 71/98/70 80/108/79 76/109/75
f 72/99/71 76/109/75 77/113/76
f 73/104/72 77/110/76 78/111/77
f 74/106/73 78/111/77 79/112/78
f 75/101/74 79/112/78 80/108/79
f 76/109/75 80/108/79 81/114/80
f 77/113/76 76/109/75 81/115/80
f 78/111/77 77/110/76 81/116/80
f 79/112/78 78/111/77 81/117/80
f 80/108/79 79/112/78 81/118/80
o Boba2
v 0.533602 2.122798 0.227919
v 0.508922 1.991551 0.111291
v 0.618747 2.125207 0.072415
v 0.548506 2.274496 0.137348
v 0.395268 2.233102 0.216354
v 0.370805 2.058234 0.200250
v 0.508573 2.062133 -0.051361
v 0.533036 2.237002 -0.035257
v 0.394920 2.303684 0.053701
v 0.285094 2.170029 0.092578
v 0.355335 2.020739 0.027645
v 0.370239 2.172437 -0.062926
vn 0.4844 -0.1472 0.8624
vn 0.3380 -0.9255 0.1708
vn 0.9893 -0.1329 -0.0598
vn 0.5728 0.7524 0.3253
vn -0.3360 0.5069 0.7938
vn -0.4810 -0.5301 0.6983
vn 0.3360 -0.5069 -0.7938
vn 0.4810 0.5301 -0.6983
vn -0.3380 0.9255 -0.1708
vn -0.9893 0.1329 0.0598
vn -0.5728 -0.7524 -0.3253
vn -0.4844 0.1472 -0.8624
vt 0.181819 0.000000
vt 0.272728 0.157461
vt 0.090910 0.157461
vt 0.363637 0.000000
vt 0.454546 0.157461
vt 0.909091 0.000000
vt 1.000000 0.157461
vt 0.818182 0.157461
vt 0.727273 0.000000
vt 0.636364 0.157461
vt 0.545455 0.000000
vt 0.363637 0.314921
vt 0.181819 0.314921
vt 0.909091 0.314921
vt 0.727273 0.314921
vt 0.545455 0.314921
vt 0.000000 0.314921
vt 0.272728 0.472382
vt 0.090910 0.472382
vt 0.818182 0.472382
vt 0.636364 0.472382
vt 0.454546 0.472382
s 1
usemtl Boba.002
f 82/119/81 83/120/82 84/121/83
f 83/120/82 82/122/81 87/123/86
f 82/124/81 84/125/83 85/126/84
f 82/127/81 85/126/84 86/128/85
f 82/129/81 86/128/85 87/123/86
f 83/120/82 87/123/86 92/130/91
f 84/121/83 83/120/82 88/131/87
f 85/126/84 84/125/83 89/132/88
f 86/128/85 85/126/84 90/133/89
f 87/123/86 86/128/85 91/134/90
f 83/120/82 92/130/91 88/131/87
f 84/121/83 88/131/87 89/135/88
f 85/126/84 89/132/88 90/133/89
f 86/128/85 90/133/89 91/134/90
f 87/123/86 91/134/90 92/130/91
f 88/131/87 92/130/91 93/136/92
f 89/135/88 88/131/87 93/137/92
f 90/133/89 89/132/88 93/138/92
f 91/134/90 90/133/89 93/139/92
f 92/130/91 91/134/90 93/140/92
