# Blender 4.5.1 LTS
# www.blender.org
mtllib vending_machine.mtl
o Cube
v 0.117941 -0.002727 0.076284
v 0.117941 0.356705 0.076284
v -0.117941 -0.002727 0.076284
v -0.117941 0.356705 0.076284
v 0.117941 -0.002727 -0.076284
v 0.117941 0.356705 -0.076284
v -0.117941 -0.002727 -0.076284
v -0.117941 0.356705 -0.076284
vn -0.0000 -0.0000 1.0000
vn -1.0000 -0.0000 -0.0000
vn -0.0000 -0.0000 -1.0000
vn 1.0000 -0.0000 -0.0000
vn -0.0000 -1.0000 -0.0000
vn -0.0000 1.0000 -0.0000
vt 0.496388 0.234081
vt 0.496388 0.996388
vt 0.003612 0.996388
vt 0.003612 0.234081
vt 0.997890 0.474179
vt 0.997890 0.998477
vt 0.795079 0.998477
vt 0.795079 0.474179
vt 0.375000 0.500000
vt 0.625000 0.500000
vt 0.625000 0.750000
vt 0.375000 0.750000
vt 1.000918 0.475235
vt 1.000918 0.997421
vt 0.792051 0.997421
vt 0.792051 0.475235
vt 0.889140 0.504375
vt 0.966328 0.504375
vt 0.966328 0.581563
vt 0.889140 0.581563
vt 0.883377 0.504470
vt 0.964280 0.504470
vt 0.964280 0.585373
vt 0.883377 0.585373
s 0
usemtl Material.004
f 1/1/1 2/2/1 4/3/1 3/4/1
f 3/5/2 4/6/2 8/7/2 7/8/2
f 7/9/3 8/10/3 6/11/3 5/12/3
f 5/13/4 6/14/4 2/15/4 1/16/4
f 3/17/5 7/18/5 5/19/5 1/20/5
f 8/21/6 4/22/6 2/23/6 6/24/6
