# Blender 4.5.1 LTS
# www.blender.org
mtllib car.mtl
o Car
v -0.225150 -0.003022 0.402785
v -0.225150 -0.003022 -0.363914
v -0.225150 0.399842 -0.363914
v 0.225149 -0.003022 0.402785
v 0.225149 -0.003022 -0.363914
v 0.225149 0.399842 -0.363914
v -0.225150 0.211969 0.402785
v -0.225150 0.399842 0.214912
v 0.225149 0.399842 0.214912
v 0.225149 0.211969 0.402785
vn -0.0000 -0.0000 -1.0000
vn -0.0000 -1.0000 -0.0000
vn -0.0000 0.7071 0.7071
vn -0.0000 -0.0000 1.0000
vn -1.0000 -0.0000 -0.0000
vn -0.0000 1.0000 -0.0000
vn 1.0000 -0.0000 -0.0000
vt 0.375000 0.250000
vt 0.625000 0.250000
vt 0.625000 0.500000
vt 0.375000 0.500000
vt 0.125000 0.500000
vt 0.375000 0.750000
vt 0.125000 0.750000
vt 0.625000 0.699654
vt 0.625000 1.000000
vt 0.508414 1.000000
vt 0.508414 0.750000
vt 0.375000 1.000000
vt 0.375000 0.000000
vt 0.508414 0.000000
vt 0.625000 0.061260
vt 0.875000 0.500000
vt 0.875000 0.688740
s 1
f 2/1/1 3/2/1 6/3/1 5/4/1
f 2/5/2 5/4/2 4/6/2 1/7/2
f 9/8/3 8/9/3 7/10/3 10/11/3
f 4/6/4 10/11/4 7/10/4 1/12/4
f 1/13/5 7/14/5 8/15/5 3/2/5 2/1/5
f 6/3/6 3/16/6 8/17/6 9/8/6
f 5/4/7 6/3/7 9/8/7 10/11/7 4/6/7
