# Blender 4.5.1 LTS
# www.blender.org
mtllib scene.mtl
o Road
v -1.000000 0.000000 10.000000
v 1.000000 0.000000 10.000000
v -1.000000 0.000000 -10.000000
v 1.000000 0.000000 -10.000000
v 1.000000 0.034217 10.000000
v 1.000000 0.034217 -10.000000
v 1.619350 0.034217 10.000000
v 1.619350 0.034217 -10.000000
v 1.619351 0.095667 10.000000
v 1.619351 0.095667 -10.000000
v 1.651459 0.189983 9.999999
v 1.651459 0.189983 -10.000000
v 1.651459 0.304919 9.999999
v 1.651459 0.304919 -10.000000
v 1.704743 0.304919 9.999999
v 1.704743 0.304919 -10.000000
v 1.704743 0.037687 9.999999
v 1.704743 0.037687 -10.000000
v -1.000000 0.034217 10.000000
v -1.000000 0.034217 -10.000000
v -1.619350 0.034217 10.000000
v -1.619350 0.034217 -10.000000
vn -0.0000 1.0000 -0.0000
vn -1.0000 -0.0000 -0.0000
vn -0.9467 0.3223 -0.0000
vn 1.0000 -0.0000 -0.0000
vt 0.000000 0.000000
vt 1.000000 0.000000
vt 1.000000 1.000000
vt 0.000000 1.000000
s 0
f 1/1/1 2/2/1 4/3/1 3/4/1
f 4/3/2 2/2/2 5/2/2 6/3/2
f 6/3/1 5/2/1 7/2/1 8/3/1
f 8/3/2 7/2/2 9/2/2 10/3/2
f 10/3/3 9/2/3 11/2/3 12/3/3
f 12/3/2 11/2/2 13/2/2 14/3/2
f 14/3/1 13/2/1 15/2/1 16/3/1
f 16/3/4 15/2/4 17/2/4 18/3/4
f 1/1/4 3/4/4 20/4/4 19/1/4
f 19/1/1 20/4/1 22/4/1 21/1/1
o Car
v 0.384822 0.017860 0.541549
v 0.384822 0.017860 -0.225150
v 0.384822 0.420724 -0.225150
v 0.835121 0.017860 0.541549
v 0.835121 0.017860 -0.225150
v 0.835121 0.420724 -0.225150
v 0.384822 0.232851 0.541549
v 0.384822 0.420724 0.353676
v 0.835121 0.420724 0.353676
v 0.835121 0.232851 0.541549
vn -0.0000 -0.0000 -1.0000
vn -0.0000 -1.0000 -0.0000
vn -0.0000 0.7071 0.7071
vn -0.0000 -0.0000 1.0000
vn -1.0000 -0.0000 -0.0000
vn -0.0000 1.0000 -0.0000
vn 1.0000 -0.0000 -0.0000
vt 0.375000 0.250000
vt 0.625000 0.250000
vt 0.625000 0.500000
vt 0.375000 0.500000
vt 0.125000 0.500000
vt 0.375000 0.750000
vt 0.125000 0.750000
vt 0.625000 0.699654
vt 0.625000 1.000000
vt 0.508414 1.000000
vt 0.508414 0.750000
vt 0.375000 1.000000
vt 0.375000 0.000000
vt 0.508414 0.000000
vt 0.625000 0.061260
vt 0.875000 0.500000
vt 0.875000 0.688740
s 0
f 24/5/5 25/6/5 28/7/5 27/8/5
f 24/9/6 27/8/6 26/10/6 23/11/6
f 31/12/7 30/13/7 29/14/7 32/15/7
f 26/10/8 32/15/8 29/14/8 23/16/8
f 23/17/9 29/18/9 30/19/9 25/6/9 24/5/9
f 28/7/10 25/20/10 30/21/10 31/12/10
f 27/8/11 28/7/11 31/12/11 32/15/11 26/10/11
o TelephonePole
v 1.037156 -0.017230 -0.021904
v 1.037156 1.617535 -0.021904
v 1.062449 -0.017230 -0.021904
v 1.062449 1.617535 -0.021904
v 1.075095 -0.017230 0.000000
v 1.075095 1.617535 0.000000
v 1.062449 -0.017230 0.021904
v 1.062449 1.617535 0.021904
v 1.037156 -0.017230 0.021904
v 1.037156 1.617535 0.021904
v 1.024509 -0.017230 -0.000000
v 1.024509 1.617535 -0.000000
v 0.943536 0.991388 0.027563
v 1.149443 0.991388 0.027563
v 0.943536 1.197295 0.027563
v 1.149443 1.197295 0.027563
v 1.037156 1.567153 -0.021904
v 1.062449 1.567153 -0.021904
v 1.075095 1.567153 0.000000
v 1.062449 1.567153 0.021904
v 1.037156 1.567153 0.021904
v 1.024509 1.567153 -0.000000
v 1.062449 1.458938 -0.021904
v 1.075095 1.458938 0.000000
v 1.062449 1.458938 0.021904
v 1.037156 1.458938 0.021904
v 1.024509 1.458938 -0.000000
v 1.037156 1.458938 -0.021904
v 0.996577 1.458938 -0.021904
v 0.996577 1.567153 -0.021904
v 0.983931 1.567153 -0.000000
v 0.996577 1.567153 0.021904
v 0.996577 1.458938 0.021904
v 0.983931 1.458938 -0.000000
vn -0.0000 -0.0000 -1.0000
vn 0.8660 -0.0000 -0.5000
vn 0.8660 -0.0000 0.5000
vn -0.0000 -0.0000 1.0000
vn -0.0000 1.0000 -0.0000
vn -0.8660 -0.0000 0.5000
vn -0.8660 -0.0000 -0.5000
vn -0.0000 -1.0000 -0.0000
vt 1.000000 0.984590
vt 1.000000 1.000000
vt 0.833333 1.000000
vt 0.833333 0.984590
vt 0.666667 1.000000
vt 0.666667 0.984590
vt 0.500000 1.000000
vt 0.500000 0.984590
vt 0.333333 1.000000
vt 0.333333 0.984590
vt 0.457846 0.370000
vt 0.250000 0.490000
vt 0.042154 0.370000
vt 0.042154 0.130000
vt 0.250000 0.010000
vt 0.457846 0.130000
vt 0.166667 1.000000
vt 0.166667 0.984590
vt -0.000000 1.000000
vt -0.000000 0.984590
vt 0.750000 0.490000
vt 0.957846 0.370000
vt 0.957846 0.130000
vt 0.750000 0.010000
vt 0.542154 0.130000
vt 0.542154 0.370000
vt 0.000000 0.000000
vt 1.000000 0.000000
vt 0.000000 1.000000
vt 0.333333 0.951492
vt 0.500000 0.951492
vt 0.666667 0.951492
vt 0.833333 0.951492
vt 1.000000 0.951492
vt 1.000000 0.500000
vt 0.833333 0.500000
vt 0.666667 0.500000
vt 0.500000 0.500000
vt 0.333333 0.500000
vt 0.166667 0.951492
vt 0.166667 0.500000
vt -0.000000 0.951492
vt -0.000000 0.500000
s 0
f 49/22/12 34/23/12 36/24/12 50/25/12
f 50/25/13 36/24/13 38/26/13 51/27/13
f 51/27/14 38/26/14 40/28/14 52/29/14
f 52/29/15 40/28/15 42/30/15 53/31/15
f 36/32/16 34/33/16 44/34/16 42/35/16 40/36/16 38/37/16
f 53/31/17 42/30/17 44/38/17 54/39/17
f 54/39/18 44/38/18 34/40/18 49/41/18
f 33/42/19 35/43/19 37/44/19 39/45/19 41/46/19 43/47/19
f 45/48/15 46/49/15 48/23/15 47/50/15
f 58/51/15 53/31/15 64/31/15 65/51/15
f 54/39/16 49/41/16 62/41/16 63/39/16
f 57/52/15 52/29/15 53/31/15 58/51/15
f 56/53/14 51/27/14 52/29/14 57/52/14
f 55/54/13 50/25/13 51/27/13 56/53/13
f 60/55/12 49/22/12 50/25/12 55/54/12
f 33/56/12 60/55/12 55/54/12 35/57/12
f 35/57/13 55/54/13 56/53/13 37/58/13
f 37/58/14 56/53/14 57/52/14 39/59/14
f 39/59/15 57/52/15 58/51/15 41/60/15
f 41/60/17 58/51/17 59/61/17 43/62/17
f 43/62/18 59/61/18 60/63/18 33/64/18
f 66/61/18 63/39/18 62/41/18 61/63/18
f 65/51/17 64/31/17 63/39/17 66/61/17
f 59/61/19 58/51/19 65/51/19 66/61/19
f 49/22/12 60/55/12 61/55/12 62/22/12
f 53/31/16 54/39/16 63/39/16 64/31/16
f 60/63/19 59/61/19 66/61/19 61/63/19
