# Blender 4.5.1 LTS
# www.blender.org
mtllib tree.mtl
o Tree
v -0.039296 -0.042719 0.039296
v -0.016445 1.201982 0.016445
v -0.039296 -0.042719 -0.039296
v -0.016445 1.201982 -0.016445
v 0.039296 -0.042719 0.039296
v 0.016445 1.201982 0.016445
v 0.039296 -0.042719 -0.039296
v 0.016445 1.201982 -0.016445
v -0.479065 0.475733 0.851845
v 0.509781 0.571364 0.851845
v -0.509781 0.071171 0.002687
v 0.479065 0.166803 0.002687
v 0.567487 0.545283 0.752417
v 0.948310 0.629805 -0.148539
v -0.198759 0.105310 0.462121
v 0.182064 0.189832 -0.438834
v 0.881577 0.598689 -0.238815
v 0.208650 0.634842 -0.936827
v 0.337817 0.158070 0.356952
v -0.335111 0.194222 -0.341059
v 0.102016 0.600440 -0.910371
v -0.794714 0.609160 -0.571030
v 0.448981 0.199715 -0.172775
v -0.447749 0.208435 0.166566
v -0.810796 0.577546 -0.462927
v -0.852033 0.611474 0.483123
v 0.009790 0.214151 -0.480536
v -0.031448 0.248079 0.465513
v -0.758903 0.585647 0.540581
v 0.082269 0.665193 0.944282
v -0.440960 0.217933 -0.201437
v 0.400212 0.297479 0.202264
v 0.171689 0.641545 0.882712
v 0.862092 0.731142 0.273047
v -0.363171 0.239630 0.316244
v 0.327231 0.329228 -0.293421
v 0.841957 0.703937 0.168586
v 0.553621 0.756064 -0.697728
v 0.136034 0.285248 0.445901
v -0.152303 0.337375 -0.420413
v 0.452084 0.724374 -0.719217
v -0.448417 0.736902 -0.795010
v 0.446065 0.331547 0.041466
v -0.454436 0.344076 -0.034327
v -0.506138 0.705599 -0.710223
v -0.925752 0.723295 0.078017
v 0.197760 0.354637 -0.398445
v -0.221854 0.372332 0.389795
v -0.869993 0.697065 0.164241
v -0.318584 0.756751 0.850862
v -0.299013 0.358679 -0.344281
v 0.252396 0.418365 0.342340
v -0.217580 0.734466 0.834417
v 0.617664 0.821003 0.598342
v -0.443278 0.370240 0.127893
v 0.391965 0.456778 -0.108181
v 0.642933 0.797206 0.500834
v 0.750119 0.862894 -0.351962
v -0.071348 0.405873 0.441886
v 0.035837 0.471561 -0.410910
v 0.672419 0.834449 -0.412093
v -0.062493 0.857066 -0.842311
v 0.356867 0.452482 0.224896
v -0.378045 0.475099 -0.205322
v -0.146143 0.826865 -0.794267
v -0.823403 0.835765 -0.294297
v 0.324641 0.483742 -0.249627
v -0.352620 0.492642 0.250343
v -0.811122 0.809109 -0.198813
v -0.621208 0.848775 0.610213
v -0.119812 0.492022 -0.405413
v 0.070101 0.531689 0.403613
v -0.528696 0.826950 0.636868
v 0.277813 0.903241 0.777248
v -0.434436 0.497113 -0.062373
v 0.372073 0.573405 0.078006
v 0.338876 0.882062 0.704171
v 0.776948 0.956087 0.023881
v -0.245714 0.521830 0.356432
v 0.192358 0.595855 -0.323858
v 0.735239 0.931048 -0.059357
v 0.285272 0.966916 -0.723428
v 0.206791 0.564550 0.346856
v -0.243176 0.600418 -0.317216
v 0.194516 0.938602 -0.717142
v -0.584662 0.946454 -0.567156
v 0.372410 0.601737 -0.069117
v -0.406768 0.609588 0.080869
v -0.613119 0.919716 -0.481476
v -0.780439 0.942479 0.284319
v 0.057822 0.616717 -0.382066
v -0.109498 0.639480 0.383729
v -0.712670 0.920506 0.344177
v -0.083686 0.981592 0.792762
v -0.349185 0.619543 -0.218185
v 0.279799 0.680629 0.230400
v -0.002110 0.962117 0.755053
v 0.647227 1.037777 0.356080
v -0.358906 0.634301 0.215066
v 0.290430 0.709961 -0.183907
v 0.645527 1.015921 0.267888
v 0.532991 1.064868 -0.478951
v 0.029912 0.669869 0.391642
v -0.082624 0.718816 -0.355198
v 0.453175 1.039058 -0.511023
v -0.270378 1.052458 -0.700050
v 0.339987 0.709614 0.105976
v -0.383566 0.723014 -0.083051
v -0.329491 1.026232 -0.639267
v -0.783067 1.037557 -0.055741
v 0.199752 0.731966 -0.287691
v -0.253824 0.743292 0.295834
v -0.749840 1.015195 0.022288
v -0.397174 1.059055 0.660482
v -0.212979 0.736432 -0.313728
v 0.139687 0.780292 0.324466
v -0.312528 1.040416 0.661214
v 0.402089 1.110980 0.587327
v -0.397354 0.743703 0.050963
v 0.317263 0.814267 -0.022925
v 0.436436 1.091774 0.511244
v 0.644533 1.150725 -0.168575
v -0.138400 0.770316 0.359793
v 0.069696 0.829267 -0.320026
v 0.589623 1.127754 -0.228766
v 0.051225 1.151061 -0.683323
v 0.241543 0.808900 0.243680
v -0.296855 0.832207 -0.210877
v -0.023834 1.126033 -0.656159
v -0.646761 1.132478 -0.344168
v 0.282414 0.837589 -0.147612
v -0.340514 0.844034 0.164378
v -0.650296 1.109834 -0.264737
v -0.609746 1.137466 0.422040
v -0.057964 0.846617 -0.337422
v -0.017414 0.874249 0.349355
v -0.538118 1.118984 0.456719
v 0.099824 1.178989 0.685670
v -0.363007 0.849767 -0.102152
v 0.274935 0.909772 0.126799
v 0.159909 1.161706 0.634584
v 0.613445 1.225612 0.142256
v -0.268285 0.867272 0.266176
v 0.185250 0.931178 -0.226152
v 0.591156 1.205489 0.068333
v 0.318198 1.240284 -0.536547
v 0.102132 0.901376 0.322601
v -0.170826 0.936171 -0.282279
v 0.243252 1.217078 -0.544425
v -0.413301 1.224960 -0.532228
v 0.296064 0.934063 0.007056
v -0.360489 0.941945 0.019253
v -0.448669 1.202423 -0.466551
v -0.693336 1.217343 0.134370
v 0.083815 0.949165 -0.292506
v -0.160852 0.964086 0.308415
v -0.646580 1.198621 0.192624
v -0.197000 1.244784 0.647698
v -0.271234 0.951735 -0.216396
v 0.178346 0.997898 0.238677
v -0.125185 1.228648 0.628362
v 0.460850 1.291682 0.395298
v -0.340389 0.961488 0.135596
v 0.245646 1.024522 -0.097468
v 0.471893 1.274106 0.323011
v 0.485811 1.319228 -0.301576
v -0.048236 0.988788 0.334763
v -0.034317 1.033909 -0.289824
v 0.425213 1.298283 -0.339169
v -0.138039 1.312543 -0.595508
v 0.245070 1.022427 0.145908
v -0.318183 1.036687 -0.110431
v -0.194885 1.290661 -0.554463
v -0.647223 1.297989 -0.142704
v 0.186419 1.043590 -0.194778
v -0.265919 1.050918 0.216981
v -0.631202 1.278938 -0.074519
v -0.433779 1.310553 0.495995
v -0.146443 1.048625 -0.274329
v 0.050980 1.080240 0.296185
v -0.364895 1.294880 0.508444
v 0.228400 1.351640 0.549653
v -0.348335 1.053079 -0.002977
v 0.244960 1.109840 0.038232
v 0.267129 1.336084 0.492353
v 0.533042 1.388175 -0.032196
v -0.180792 1.072582 0.285617
v 0.085121 1.124674 -0.238932
v 0.496735 1.369670 -0.089180
v 0.122022 1.393121 -0.535798
v 0.145512 1.104085 0.244887
v -0.229201 1.127537 -0.201731
v 0.056930 1.372469 -0.524413
v -0.495119 1.377806 -0.358036
v 0.234215 1.129957 -0.068222
v -0.317835 1.135295 0.098155
v -0.509275 1.358621 -0.293906
v -0.573258 1.377426 0.272000
v -0.016484 1.139500 -0.271057
v -0.080468 1.158305 0.294849
v -0.519788 1.361725 0.310289
v -0.031853 1.408229 0.587531
v -0.298482 1.141635 -0.122319
v 0.189453 1.188139 0.154922
v 0.024333 1.394046 0.554263
v 0.463884 1.448454 0.217324
v -0.273288 1.153732 0.191516
v 0.166264 1.208140 -0.145423
vn -0.9998 0.0184 -0.0000
vn -0.0000 0.0184 -0.9998
vn 0.9998 0.0184 -0.0000
vn -0.0000 0.0184 0.9998
vn -0.0000 -1.0000 -0.0000
vn -0.0000 1.0000 -0.0000
vn 0.0871 -0.9006 0.4259
vn 0.4623 -0.8795 0.1129
vn 0.3216 -0.8776 -0.3555
vn -0.1640 -0.8971 -0.4103
vn -0.4046 -0.9144 0.0152
vn -0.1079 -0.9084 0.4039
vn 0.3656 -0.8865 0.2837
vn 0.4408 -0.8752 -0.1994
vn 0.0262 -0.8883 -0.4585
vn -0.3744 -0.9098 -0.1789
vn -0.2744 -0.9137 0.2998
vn 0.2047 -0.8951 0.3961
vn 0.4809 -0.8767 -0.0071
vn 0.2187 -0.8808 -0.4199
vn -0.2635 -0.9025 -0.3408
vn -0.3798 -0.9153 0.1340
vn 0.0110 -0.9038 0.4278
vn 0.4342 -0.8819 0.1836
vn 0.3757 -0.8762 -0.3019
vn -0.0935 -0.8937 -0.4389
vn -0.4033 -0.9130 -0.0610
vn -0.1774 -0.9108 0.3728
vn 0.3098 -0.8897 0.3354
vn 0.4664 -0.8753 -0.1276
vn 0.1022 -0.8852 -0.4539
vn -0.3404 -0.9073 -0.2470
vn -0.3237 -0.9148 0.2417
vn 0.1320 -0.8986 0.4185
vn 0.4731 -0.8783 0.0687
vn 0.2852 -0.8787 -0.3829
vn -0.2034 -0.8991 -0.3875
vn -0.3991 -0.9149 0.0604
vn -0.0642 -0.9068 0.4167
vn 0.3945 -0.8847 0.2485
vn 0.4197 -0.8754 -0.2398
vn -0.0191 -0.8903 -0.4550
vn -0.3890 -0.9112 -0.1358
vn -0.2405 -0.9127 0.3302
vn 0.2459 -0.8931 0.3768
vn 0.4794 -0.8760 -0.0526
vn 0.1762 -0.8824 -0.4363
vn -0.2952 -0.9043 -0.3082
vn -0.3623 -0.9153 0.1761
vn 0.0565 -0.9019 0.4282
vn 0.4524 -0.8804 0.1419
vn 0.3445 -0.8770 -0.3351
vn -0.1362 -0.8957 -0.4232
vn -0.4056 -0.9139 -0.0155
vn -0.1365 -0.9094 0.3928
vn 0.3442 -0.8877 0.3057
vt 0.375000 0.000000
vt 0.625000 0.000000
vt 0.625000 0.250000
vt 0.375000 0.250000
vt 0.625000 0.500000
vt 0.375000 0.500000
vt 0.625000 0.750000
vt 0.375000 0.750000
vt 0.625000 1.000000
vt 0.375000 1.000000
vt 0.125000 0.500000
vt 0.125000 0.750000
vt 0.875000 0.500000
vt 0.875000 0.750000
vt 1.000000 1.000000
vt 1.000000 0.000000
vt 0.000000 0.000000
vt 0.000000 1.000000
s 0
usemtl Material.002
f 1/1/1 2/2/1 4/3/1 3/4/1
f 3/4/2 4/3/2 8/5/2 7/6/2
f 7/6/3 8/5/3 6/7/3 5/8/3
f 5/8/4 6/7/4 2/9/4 1/10/4
f 3/11/5 7/6/5 5/8/5 1/12/5
f 8/5/6 4/13/6 2/14/6 6/7/6
usemtl Material.001
f 9/15/7 11/16/7 12/17/7 10/18/7
f 13/15/8 15/16/8 16/17/8 14/18/8
f 17/15/9 19/16/9 20/17/9 18/18/9
f 21/15/10 23/16/10 24/17/10 22/18/10
f 25/15/11 27/16/11 28/17/11 26/18/11
f 29/15/12 31/16/12 32/17/12 30/18/12
f 33/15/13 35/16/13 36/17/13 34/18/13
f 37/15/14 39/16/14 40/17/14 38/18/14
f 41/15/15 43/16/15 44/17/15 42/18/15
f 45/15/16 47/16/16 48/17/16 46/18/16
f 49/15/17 51/16/17 52/17/17 50/18/17
f 53/15/18 55/16/18 56/17/18 54/18/18
f 57/15/19 59/16/19 60/17/19 58/18/19
f 61/15/20 63/16/20 64/17/20 62/18/20
f 65/15/21 67/16/21 68/17/21 66/18/21
f 69/15/22 71/16/22 72/17/22 70/18/22
f 73/15/23 75/16/23 76/17/23 74/18/23
f 77/15/24 79/16/24 80/17/24 78/18/24
f 81/15/25 83/16/25 84/17/25 82/18/25
f 85/15/26 87/16/26 88/17/26 86/18/26
f 89/15/27 91/16/27 92/17/27 90/18/27
f 93/15/28 95/16/28 96/17/28 94/18/28
f 97/15/29 99/16/29 100/17/29 98/18/29
f 101/15/30 103/16/30 104/17/30 102/18/30
f 105/15/31 107/16/31 108/17/31 106/18/31
f 109/15/32 111/16/32 112/17/32 110/18/32
f 113/15/33 115/16/33 116/17/33 114/18/33
f 117/15/34 119/16/34 120/17/34 118/18/34
f 121/15/35 123/16/35 124/17/35 122/18/35
f 125/15/36 127/16/36 128/17/36 126/18/36
f 129/15/37 131/16/37 132/17/37 130/18/37
f 133/15/38 135/16/38 136/17/38 134/18/38
f 137/15/39 139/16/39 140/17/39 138/18/39
f 141/15/40 143/16/40 144/17/40 142/18/40
f 145/15/41 147/16/41 148/17/41 146/18/41
f 149/15/42 151/16/42 152/17/42 150/18/42
f 153/15/43 155/16/43 156/17/43 154/18/43
f 157/15/44 159/16/44 160/17/44 158/18/44
f 161/15/45 163/16/45 164/17/45 162/18/45
f 165/15/46 167/16/46 168/17/46 166/18/46
f 169/15/47 171/16/47 172/17/47 170/18/47
f 173/15/48 175/16/48 176/17/48 174/18/48
f 177/15/49 179/16/49 180/17/49 178/18/49
f 181/15/50 183/16/50 184/17/50 182/18/50
f 185/15/51 187/16/51 188/17/51 186/18/51
f 189/15/52 191/16/52 192/17/52 190/18/52
f 193/15/53 195/16/53 196/17/53 194/18/53
f 197/15/54 199/16/54 200/17/54 198/18/54
f 201/15/55 203/16/55 204/17/55 202/18/55
f 205/15/56 207/16/56 208/17/56 206/18/56
