# Blender 4.5.1 LTS
# www.blender.org
mtllib scene.mtl
o Car
v 0.384822 0.017860 0.541549
v 0.384822 0.017860 -0.225150
v 0.384822 0.420724 -0.225150
v 0.835121 0.017860 0.541549
v 0.835121 0.017860 -0.225150
v 0.835121 0.420724 -0.225150
v 0.384822 0.232851 0.541549
v 0.384822 0.420724 0.353676
v 0.835121 0.420724 0.353676
v 0.835121 0.232851 0.541549
vn -0.0000 -0.0000 -1.0000
vn -0.0000 -1.0000 -0.0000
vn -0.0000 0.7071 0.7071
vn -0.0000 -0.0000 1.0000
vn -1.0000 -0.0000 -0.0000
vn -0.0000 1.0000 -0.0000
vn 1.0000 -0.0000 -0.0000
vt 0.375000 0.250000
vt 0.625000 0.250000
vt 0.625000 0.500000
vt 0.375000 0.500000
vt 0.125000 0.500000
vt 0.375000 0.750000
vt 0.125000 0.750000
vt 0.625000 0.699654
vt 0.625000 1.000000
vt 0.508414 1.000000
vt 0.508414 0.750000
vt 0.375000 1.000000
vt 0.375000 0.000000
vt 0.508414 0.000000
vt 0.625000 0.061260
vt 0.875000 0.500000
vt 0.875000 0.688740
s 1
f 2/1/1 3/2/1 6/3/1 5/4/1
f 2/5/2 5/4/2 4/6/2 1/7/2
f 9/8/3 8/9/3 7/10/3 10/11/3
f 4/6/4 10/11/4 7/10/4 1/12/4
f 1/13/5 7/14/5 8/15/5 3/2/5 2/1/5
f 6/3/6 3/16/6 8/17/6 9/8/6
f 5/4/7 6/3/7 9/8/7 10/11/7 4/6/7
o Road
v -1.000000 0.000001 1.500000
v 1.000000 0.000001 1.500000
v -1.000000 -0.000001 -1.500000
v 1.000000 -0.000001 -1.500000
v 1.000000 0.034218 1.500000
v 1.000000 0.034216 -1.500000
v 1.619350 0.034218 1.500000
v 1.619350 0.034216 -1.500000
v 1.619351 0.095668 1.500000
v 1.619351 0.095666 -1.500000
v 1.651459 0.189984 1.500000
v 1.651459 0.189982 -1.500000
v 1.651459 0.304920 1.500000
v 1.651459 0.304918 -1.500000
v 1.704743 0.304920 1.500000
v 1.704743 0.304918 -1.500000
v 1.704743 0.037688 1.500000
v 1.704743 0.037686 -1.500000
v -1.000000 0.034218 1.500000
v -1.000000 0.034216 -1.500000
v -1.619350 0.034218 1.500000
v -1.619350 0.034216 -1.500000
vn -0.0000 1.0000 -0.0000
vn -1.0000 -0.0000 -0.0000
vn -0.9466 0.3223 -0.0000
vn 1.0000 -0.0000 -0.0000
vt 0.000000 0.000000
vt 1.000000 0.000000
vt 1.000000 1.000000
vt 0.000000 1.000000
s 1
f 11/18/8 12/19/8 14/20/8 13/21/8
f 14/20/9 12/19/9 15/19/9 16/20/9
f 16/20/8 15/19/8 17/19/8 18/20/8
f 18/20/9 17/19/9 19/19/9 20/20/9
f 20/20/10 19/19/10 21/19/10 22/20/10
f 22/20/9 21/19/9 23/19/9 24/20/9
f 24/20/8 23/19/8 25/19/8 26/20/8
f 26/20/11 25/19/11 27/19/11 28/20/11
f 11/18/11 13/21/11 30/21/11 29/18/11
f 29/18/8 30/21/8 32/21/8 31/18/8
o TelephonePole
v 1.037156 -0.017230 -0.021904
v 1.037156 1.617535 -0.021904
v 1.062449 -0.017230 -0.021904
v 1.062449 1.617535 -0.021904
v 1.075095 -0.017230 0.000000
v 1.075095 1.617535 -0.000000
v 1.062449 -0.017230 0.021904
v 1.062449 1.617535 0.021904
v 1.037156 -0.017230 0.021904
v 1.037156 1.617535 0.021904
v 1.024509 -0.017230 0.000000
v 1.024509 1.617535 -0.000000
v 0.943536 0.991388 0.027563
v 1.149443 0.991388 0.027563
v 0.943536 1.197295 0.027563
v 1.149443 1.197295 0.027563
v 1.037156 1.567153 -0.021904
v 1.062449 1.567153 -0.021904
v 1.075095 1.567153 -0.000000
v 1.062449 1.567153 0.021904
v 1.037156 1.567153 0.021904
v 1.024509 1.567153 -0.000000
v 1.062449 1.458938 -0.021904
v 1.075095 1.458938 -0.000000
v 1.062449 1.458938 0.021904
v 1.037156 1.458938 0.021904
v 1.024509 1.458938 -0.000000
v 1.037156 1.458938 -0.021904
v 0.996577 1.458938 -0.021904
v 0.996577 1.567153 -0.021904
v 0.983931 1.567153 -0.000000
v 0.996577 1.567153 0.021904
v 0.996577 1.458938 0.021904
v 0.983931 1.458938 -0.000000
v 0.742283 1.156080 0.007377
v 0.742283 1.169408 0.007377
v 0.742283 1.156080 -0.007377
v 0.742283 1.169408 -0.007377
v 1.056821 1.156080 0.007377
v 1.056821 1.169408 0.007377
v 1.056821 1.156080 -0.007377
v 1.056821 1.169408 -0.007377
v 0.856320 1.030503 0.007377
v 0.856320 1.043832 0.007377
v 0.856320 1.030503 -0.007377
v 0.856320 1.043832 -0.007377
v 1.056821 1.030503 0.007377
v 1.056821 1.043832 0.007377
v 1.056821 1.030503 -0.007377
v 1.056821 1.043832 -0.007377
v 0.856320 1.156080 -0.007377
v 0.856320 1.169408 -0.007377
v 0.856320 1.156080 0.007377
v 0.856320 1.169408 0.007377
v 0.871253 1.169408 -0.007377
v 0.871253 1.156080 0.007377
v 0.871253 1.156080 -0.007377
v 0.871253 1.169408 0.007377
v 0.871253 1.030503 -0.007377
v 0.871253 1.043832 -0.007377
v 0.871253 1.030503 0.007377
v 0.871253 1.043832 0.007377
v 0.757143 1.156080 -0.007377
v 0.757143 1.169408 0.007377
v 0.757143 1.169408 -0.007377
v 0.757143 1.156080 0.007377
v 0.742283 1.183222 0.007377
v 0.742283 1.183222 -0.007377
v 0.757143 1.183222 0.007377
v 0.757143 1.183222 -0.007377
v 0.742283 1.140101 -0.007377
v 0.742283 1.140101 0.007377
v 0.757143 1.140101 -0.007377
v 0.757143 1.140101 0.007377
v 0.749239 0.995652 -0.000000
v 0.797911 1.032834 0.035362
v 0.730648 1.032834 0.057218
v 0.689077 1.032834 -0.000000
v 0.730648 1.032834 -0.057218
v 0.797911 1.032834 -0.035362
v 0.767830 1.092997 0.057218
v 0.700566 1.092997 0.035362
v 0.700566 1.092997 -0.035362
v 0.767830 1.092997 -0.057218
v 0.809401 1.092997 -0.000000
v 0.749239 1.130179 -0.000000
v 0.738312 1.005697 0.033631
v 0.777848 1.005698 0.020785
v 0.766920 1.027553 0.054417
v 0.806456 1.027553 -0.000000
v 0.777848 1.005698 -0.020785
v 0.713876 1.005698 -0.000000
v 0.702949 1.027553 0.033632
v 0.738312 1.005697 -0.033631
v 0.702949 1.027553 -0.033632
v 0.766920 1.027553 -0.054417
v 0.813210 1.062916 0.020785
v 0.813210 1.062916 -0.020785
v 0.749239 1.062916 0.067263
v 0.788775 1.062916 0.054417
v 0.685267 1.062916 0.020785
v 0.709702 1.062916 0.054417
v 0.709702 1.062916 -0.054417
v 0.685267 1.062916 -0.020785
v 0.788775 1.062916 -0.054417
v 0.749239 1.062916 -0.067264
v 0.795529 1.098278 0.033632
v 0.731557 1.098279 0.054417
v 0.692021 1.098278 -0.000000
v 0.731557 1.098279 -0.054417
v 0.795529 1.098279 -0.033632
v 0.760166 1.120134 0.033631
v 0.784601 1.120133 -0.000000
v 0.720630 1.120134 0.020785
v 0.720630 1.120134 -0.020785
v 0.760166 1.120134 -0.033631
v 0.731452 1.132406 -0.018131
v 0.741210 1.120414 -0.034891
v 0.714571 1.120414 -0.008252
v 0.714571 1.120414 0.008252
v 0.741210 1.120414 0.034891
v 0.731452 1.132406 0.018131
v 0.767975 1.132406 -0.018131
v 0.784855 1.120414 -0.008252
v 0.758216 1.120414 -0.034891
v 0.758216 1.120414 0.034891
v 0.784855 1.120414 0.008252
v 0.767975 1.132406 0.018131
vn -0.0000 -0.0000 -1.0000
vn 0.8660 -0.0000 -0.5000
vn 0.8660 -0.0000 0.5000
vn -0.0000 -0.0000 1.0000
vn -0.0000 1.0000 -0.0000
vn -0.8660 -0.0000 0.5000
vn -0.8660 -0.0000 -0.5000
vn -0.0000 -1.0000 -0.0000
vn -1.0000 -0.0000 -0.0000
vn 1.0000 -0.0000 -0.0000
vn 0.1024 -0.9435 0.3151
vn 0.7002 -0.6617 0.2680
vn -0.2680 -0.9435 0.1947
vn -0.2680 -0.9435 -0.1947
vn 0.1024 -0.9435 -0.3151
vn 0.9050 -0.3304 0.2680
vn 0.0247 -0.3304 0.9435
vn -0.8897 -0.3304 0.3151
vn -0.5746 -0.3304 -0.7488
vn 0.5346 -0.3304 -0.7779
vn 0.8026 -0.1256 0.5831
vn -0.3066 -0.1256 0.9435
vn -0.9921 -0.1256 -0.0000
vn -0.3066 -0.1256 -0.9435
vn 0.8026 -0.1256 -0.5831
vn 0.4089 0.6617 0.6284
vn -0.4713 0.6617 0.5831
vn -0.7002 0.6617 -0.2680
vn 0.0385 0.6617 -0.7488
vn 0.7240 0.6617 -0.1947
vn 0.2680 0.9435 -0.1947
vn 0.4911 0.7947 -0.3568
vn 0.4089 0.6617 -0.6284
vn -0.1024 0.9435 -0.3151
vn -0.1876 0.7947 -0.5773
vn -0.4713 0.6617 -0.5831
vn -0.3313 0.9435 -0.0000
vn -0.6071 0.7947 -0.0000
vn -0.7002 0.6617 0.2680
vn -0.1024 0.9435 0.3151
vn -0.1876 0.7947 0.5773
vn 0.0385 0.6617 0.7488
vn 0.2680 0.9435 0.1947
vn 0.4911 0.7947 0.3568
vn 0.7240 0.6617 0.1947
vn 0.8897 0.3304 -0.3151
vn 0.7947 0.1876 -0.5773
vn 0.5746 0.3304 -0.7488
vn -0.0247 0.3304 -0.9435
vn -0.3035 0.1876 -0.9342
vn -0.5346 0.3304 -0.7779
vn -0.9050 0.3304 -0.2680
vn -0.9822 0.1876 -0.0000
vn -0.9050 0.3304 0.2680
vn -0.5346 0.3304 0.7779
vn -0.3035 0.1876 0.9342
vn -0.0247 0.3304 0.9435
vn 0.5746 0.3304 0.7488
vn 0.7947 0.1876 0.5773
vn 0.8897 0.3304 0.3151
vn 0.3066 0.1256 -0.9435
vn 0.3035 -0.1876 -0.9342
vn 0.0247 -0.3304 -0.9435
vn -0.8026 0.1256 -0.5831
vn -0.7947 -0.1876 -0.5773
vn -0.8897 -0.3304 -0.3151
vn -0.8026 0.1256 0.5831
vn -0.7947 -0.1876 0.5773
vn -0.5746 -0.3304 0.7488
vn 0.3066 0.1256 0.9435
vn 0.3035 -0.1876 0.9342
vn 0.5346 -0.3304 0.7779
vn 0.9921 0.1256 -0.0000
vn 0.9822 -0.1876 -0.0000
vn 0.9050 -0.3304 -0.2680
vn 0.4713 -0.6617 -0.5831
vn 0.1876 -0.7947 -0.5773
vn -0.0385 -0.6617 -0.7488
vn -0.4089 -0.6617 -0.6284
vn -0.4911 -0.7947 -0.3568
vn -0.7240 -0.6617 -0.1947
vn -0.7240 -0.6617 0.1947
vn -0.4911 -0.7947 0.3568
vn -0.4089 -0.6617 0.6284
vn 0.7002 -0.6617 -0.2680
vn 0.6071 -0.7947 -0.0000
vn 0.3313 -0.9435 -0.0000
vn -0.0385 -0.6617 0.7488
vn 0.1876 -0.7947 0.5773
vn 0.4713 -0.6617 0.5831
vn -0.6536 0.3816 -0.6536
vn -0.6536 0.3816 0.6536
vn 0.6536 0.3816 -0.6536
vn 0.6536 0.3816 0.6536
vn -0.5791 0.8152 -0.0000
vn -0.0000 0.8133 -0.5819
vn -0.0000 0.8133 0.5819
vn 0.5791 0.8152 -0.0000
vt 1.000000 0.984590
vt 1.000000 1.000000
vt 0.833333 1.000000
vt 0.833333 0.984590
vt 0.666667 1.000000
vt 0.666667 0.984590
vt 0.500000 1.000000
vt 0.500000 0.984590
vt 0.333333 1.000000
vt 0.333333 0.984590
vt 0.457846 0.370000
vt 0.250000 0.490000
vt 0.042154 0.370000
vt 0.042154 0.130000
vt 0.250000 0.010000
vt 0.457846 0.130000
vt 0.166667 1.000000
vt 0.166667 0.984590
vt -0.000000 1.000000
vt -0.000000 0.984590
vt 0.750000 0.490000
vt 0.957846 0.370000
vt 0.957846 0.130000
vt 0.750000 0.010000
vt 0.542154 0.130000
vt 0.542154 0.370000
vt 0.000000 0.000000
vt 1.000000 0.000000
vt 0.333333 0.951492
vt 0.500000 0.951492
vt 0.666667 0.951492
vt 0.833333 0.951492
vt 1.000000 0.951492
vt 1.000000 0.500000
vt 0.833333 0.500000
vt 0.666667 0.500000
vt 0.500000 0.500000
vt 0.333333 0.500000
vt 0.166667 0.951492
vt 0.166667 0.500000
vt -0.000000 0.951492
vt -0.000000 0.500000
vt 0.375000 0.000000
vt 0.625000 0.000000
vt 0.625000 0.250000
vt 0.375000 0.250000
vt 0.375000 0.352823
vt 0.625000 0.352823
vt 0.625000 0.500000
vt 0.375000 0.500000
vt 0.625000 0.750000
vt 0.375000 0.750000
vt 0.375000 0.988144
vt 0.625000 0.988144
vt 0.625000 1.000000
vt 0.375000 1.000000
vt 0.227823 0.500000
vt 0.227823 0.750000
vt 0.375000 0.291659
vt 0.625000 0.291659
vt 0.375000 0.958341
vt 0.625000 0.958341
vt 0.166659 0.500000
vt 0.166659 0.750000
vt 0.833341 0.750000
vt 0.833341 0.500000
vt 0.772177 0.500000
vt 0.784021 0.500000
vt 0.784021 0.750000
vt 0.772177 0.750000
vt 0.136856 0.500000
vt 0.215979 0.500000
vt 0.215979 0.750000
vt 0.136856 0.750000
vt 0.375000 0.897177
vt 0.625000 0.897177
vt 0.625000 0.909021
vt 0.375000 0.909021
vt 0.375000 0.261856
vt 0.625000 0.261856
vt 0.625000 0.340979
vt 0.375000 0.340979
vt 0.125000 0.500000
vt 0.125000 0.750000
vt 0.863144 0.500000
vt 0.863144 0.750000
vt 0.875000 0.500000
vt 0.875000 0.750000
vt 0.181819 0.000000
vt 0.227273 0.078731
vt 0.136365 0.078731
vt 0.272728 0.157461
vt 0.318182 0.078731
vt 0.363637 0.157461
vt 0.909091 0.000000
vt 0.954545 0.078731
vt 0.863636 0.078731
vt 0.727273 0.000000
vt 0.772727 0.078731
vt 0.681818 0.078731
vt 0.545455 0.000000
vt 0.590909 0.078731
vt 0.500000 0.078731
vt 0.318182 0.236191
vt 0.090910 0.157461
vt 0.181819 0.157461
vt 0.136365 0.236191
vt 0.818182 0.157461
vt 0.909091 0.157461
vt 0.863636 0.236191
vt 0.636364 0.157461
vt 0.727273 0.157461
vt 0.681818 0.236191
vt 0.454546 0.157461
vt 0.545455 0.157461
vt 0.500000 0.236191
vt 0.227273 0.236191
vt 0.045455 0.236191
vt 0.772727 0.236191
vt 0.590909 0.236191
vt 0.409092 0.236191
vt 0.181819 0.314921
vt 0.272728 0.314921
vt 0.227273 0.393651
vt 0.000000 0.314921
vt 0.090910 0.314921
vt 0.045455 0.393651
vt 0.727273 0.314921
vt 0.818182 0.314921
vt 0.772727 0.393651
vt 0.545455 0.314921
vt 0.636364 0.314921
vt 0.590909 0.393651
vt 0.363637 0.314921
vt 0.454546 0.314921
vt 0.409092 0.393651
vt 0.500000 0.393651
vt 0.454546 0.472382
vt 0.681818 0.393651
vt 0.636364 0.472382
vt 0.863636 0.393651
vt 0.818182 0.472382
vt 0.909091 0.314921
vt 0.136365 0.393651
vt 0.090910 0.472382
vt 0.318182 0.393651
vt 0.272728 0.472382
vt 0.954545 0.236191
vt 1.000000 0.157461
vt 0.409092 0.078731
vt 0.363637 0.000000
vt 0.375000 0.254494
vt 0.320914 0.249944
vt 0.375000 0.095438
vt 0.129494 0.750000
vt 0.375000 0.216345
vt 0.136856 0.595438
vt 0.322789 0.309573
vt 0.375000 0.992638
vt 0.136856 0.654562
vt 0.323756 0.936900
vt 0.125000 0.595438
vt 0.129494 0.500000
vt 0.132362 0.500000
vt 0.136856 0.654562
vt 0.132362 0.750000
vt 0.125000 0.654562
vt 0.375000 0.995506
s 1
usemtl Metal
f 49/22/12 34/23/12 36/24/12 50/25/12
f 50/25/13 36/24/13 38/26/13 51/27/13
f 51/27/14 38/26/14 40/28/14 52/29/14
f 52/29/15 40/28/15 42/30/15 53/31/15
f 36/32/16 34/33/16 44/34/16 42/35/16 40/36/16 38/37/16
f 53/31/17 42/30/17 44/38/17 54/39/17
f 54/39/18 44/38/18 34/40/18 49/41/18
f 33/42/19 35/43/19 37/44/19 39/45/19 41/46/19 43/47/19
f 45/48/15 46/49/15 48/23/15 47/40/15
f 58/50/15 53/31/15 64/31/15 65/50/15
f 54/39/16 49/41/16 62/41/16 63/39/16
f 57/51/15 52/29/15 53/31/15 58/50/15
f 56/52/14 51/27/14 52/29/14 57/51/14
f 55/53/13 50/25/13 51/27/13 56/52/13
f 60/54/12 49/22/12 50/25/12 55/53/12
f 33/55/12 60/54/12 55/53/12 35/56/12
f 35/56/13 55/53/13 56/52/13 37/57/13
f 37/57/14 56/52/14 57/51/14 39/58/14
f 39/58/15 57/51/15 58/50/15 41/59/15
f 41/59/17 58/50/17 59/60/17 43/61/17
f 43/61/18 59/60/18 60/62/18 33/63/18
f 66/60/18 63/39/18 62/41/18 61/62/18
f 65/50/17 64/31/17 63/39/17 66/60/17
f 59/60/19 58/50/19 65/50/19 66/60/19
f 49/22/12 60/54/12 61/54/12 62/22/12
f 53/31/16 54/39/16 63/39/16 64/31/16
f 60/62/19 59/60/19 66/60/19 61/62/19
s 0
f 67/64/20 68/65/20 70/66/20 69/67/20
f 89/68/12 87/69/12 74/70/12 73/71/12
f 73/71/21 74/70/21 72/72/21 71/73/21
f 98/74/15 96/75/15 68/76/15 67/77/15
f 89/78/19 73/71/19 71/73/19 88/79/19
f 70/66/20 68/65/20 99/65/20 100/66/20
f 75/64/20 76/65/20 78/66/20 77/67/20
f 91/80/12 92/81/12 82/70/12 81/71/12
f 81/71/21 82/70/21 80/72/21 79/73/21
f 93/82/15 94/83/15 76/76/15 75/77/15
f 91/84/19 81/71/19 79/73/19 93/85/19
f 89/78/21 88/79/21 94/86/21 92/87/21
f 87/88/16 84/89/16 86/90/16 90/91/16
f 95/92/19 83/93/19 85/94/19 98/95/19
f 88/96/15 90/97/15 86/98/15 85/99/15
f 95/100/12 97/101/12 84/102/12 83/103/12
f 71/73/15 72/72/15 90/97/15 88/96/15
f 74/70/16 87/88/16 90/91/16 72/72/16
f 83/103/12 89/68/12 92/81/12 78/66/12
f 83/103/12 84/102/12 87/69/12 89/68/12
f 82/70/16 92/87/16 94/86/16 80/72/16
f 77/104/19 91/84/19 93/85/19 75/105/19
f 79/73/15 80/72/15 94/83/15 93/82/15
f 77/67/12 78/66/12 92/81/12 91/80/12
f 88/96/15 85/99/15 76/76/15 94/83/15
f 85/94/20 83/93/20 78/66/20 76/65/20
f 69/67/12 70/66/12 97/101/12 95/100/12
f 69/67/12 95/100/12 105/100/12 103/67/12
f 84/89/16 97/106/16 96/107/16 86/90/16
f 85/99/15 86/98/15 96/75/15 98/74/15
f 102/106/16 100/108/16 99/109/16 101/107/16
f 68/76/15 96/75/15 101/75/15 99/76/15
f 96/107/21 97/106/21 102/106/21 101/107/21
f 97/101/12 70/66/12 100/66/12 102/101/12
f 95/92/21 98/95/21 106/95/21 105/92/21
f 67/64/20 69/67/20 103/67/20 104/64/20
f 98/74/15 67/77/15 104/77/15 106/74/15
f 149/67/102 150/173/102 151/174/102
f 152/175/103 153/176/103 154/177/103
f 155/100/104 156/178/104 157/179/104
f 158/180/105 159/181/105 160/182/105
f 104/64/106 103/67/106 149/67/106 151/174/106 152/175/106 154/177/106
f 151/183/19 150/184/19 157/185/19 156/178/19 159/186/19 158/187/19 153/176/19 152/188/19
f 103/67/107 105/100/107 155/100/107 157/179/107 150/173/107 149/67/107
f 106/74/108 104/77/108 154/77/108 153/189/108 158/180/108 160/182/108
f 105/92/109 106/95/109 160/95/109 159/186/109 156/178/109 155/92/109
usemtl Lamp
f 107/110/22 120/111/22 119/112/22
f 108/113/23 120/114/23 122/115/23
f 107/116/24 119/117/24 124/118/24
f 107/119/25 124/120/25 126/121/25
f 107/122/26 126/123/26 123/124/26
f 108/113/27 122/115/27 129/125/27
f 109/126/28 121/127/28 131/128/28
f 110/129/29 125/130/29 133/131/29
f 111/132/30 127/133/30 135/134/30
f 112/135/31 128/136/31 137/137/31
f 108/113/32 129/125/32 132/138/32
f 109/126/33 131/128/33 134/139/33
f 110/129/34 133/131/34 136/140/34
f 111/132/35 135/134/35 138/141/35
f 112/135/36 137/137/36 130/142/36
f 113/143/37 139/144/37 144/145/37
f 114/146/38 140/147/38 146/148/38
f 115/149/39 141/150/39 147/151/39
f 116/152/40 142/153/40 148/154/40
f 117/155/41 143/156/41 145/157/41
f 145/157/42 148/158/42 118/159/42
f 145/157/43 143/156/43 148/158/43
f 143/156/44 116/152/44 148/158/44
f 148/154/45 147/160/45 118/161/45
f 148/154/46 142/153/46 147/160/46
f 142/153/47 115/149/47 147/160/47
f 147/151/48 146/162/48 118/163/48
f 147/151/49 141/150/49 146/162/49
f 141/150/50 114/164/50 146/162/50
f 146/148/51 144/165/51 118/166/51
f 146/148/52 140/147/52 144/165/52
f 140/147/53 113/143/53 144/165/53
f 144/145/54 145/167/54 118/168/54
f 144/145/55 139/144/55 145/167/55
f 139/144/56 117/155/56 145/167/56
f 130/142/57 143/156/57 117/155/57
f 130/142/58 137/137/58 143/156/58
f 137/137/59 116/152/59 143/156/59
f 138/141/60 142/153/60 116/152/60
f 138/141/61 135/134/61 142/153/61
f 135/134/62 115/149/62 142/153/62
f 136/140/63 141/150/63 115/149/63
f 136/140/64 133/131/64 141/150/64
f 133/131/65 114/164/65 141/150/65
f 134/139/66 140/147/66 114/146/66
f 134/139/67 131/128/67 140/147/67
f 131/128/68 113/143/68 140/147/68
f 132/138/69 139/144/69 113/143/69
f 132/138/70 129/125/70 139/144/70
f 129/125/71 117/155/71 139/144/71
f 137/137/72 138/141/72 116/152/72
f 137/137/73 128/136/73 138/141/73
f 128/136/74 111/132/74 138/141/74
f 135/134/75 136/140/75 115/149/75
f 135/134/76 127/133/76 136/140/76
f 127/133/77 110/129/77 136/140/77
f 133/131/78 134/169/78 114/164/78
f 133/131/79 125/130/79 134/169/79
f 125/130/80 109/170/80 134/169/80
f 131/128/81 132/138/81 113/143/81
f 131/128/82 121/127/82 132/138/82
f 121/127/83 108/113/83 132/138/83
f 129/125/84 130/142/84 117/155/84
f 129/125/85 122/115/85 130/142/85
f 122/115/86 112/135/86 130/142/86
f 123/124/87 128/136/87 112/135/87
f 123/124/88 126/123/88 128/136/88
f 126/123/89 111/132/89 128/136/89
f 126/121/90 127/133/90 111/132/90
f 126/121/91 124/120/91 127/133/91
f 124/120/92 110/129/92 127/133/92
f 124/118/93 125/130/93 110/129/93
f 124/118/94 119/117/94 125/130/94
f 119/117/95 109/170/95 125/130/95
f 122/115/96 123/171/96 112/135/96
f 122/115/97 120/114/97 123/171/97
f 120/114/98 107/172/98 123/171/98
f 119/112/99 121/127/99 109/126/99
f 119/112/100 120/111/100 121/127/100
f 120/111/101 108/113/101 121/127/101
o Plane
v 1.008608 1.225184 1.500000
v 1.008608 1.566467 1.500000
v 1.008608 1.225184 0.000000
v 1.008608 1.566467 0.000000
v 1.008608 1.225184 -1.500000
v 1.008608 1.566467 -1.500000
vn -1.0000 -0.0000 -0.0000
vt 1.000000 0.000000
vt 1.000000 1.000000
vt 0.000000 1.000000
vt 0.000000 0.000000
s 0
usemtl Material.003
f 161/190/110 162/191/110 164/192/110 163/193/110
f 165/190/110 163/193/110 164/192/110 166/191/110
